<svg width="24" height="24" viewBox="0 0 24 24" fill="none" xmlns="http://www.w3.org/2000/svg">
    <g clip-path="url(#clip0_6_2)">
        <path fill-rule="evenodd" clip-rule="evenodd"
              d="M0 4.8C0 7.03661 1.52972 8.91593 3.6 9.44878V14.5512C1.52972 15.0841 0 16.9634 0 19.2C0 21.8509 2.14903 24 4.8 24C7.45097 24 9.6 21.8509 9.6 19.2C9.6 16.9634 8.07028 15.0841 6 14.5512V9.44878C7.68673 9.01464 9.01464 7.68673 9.44878 6H12.0096C13.4641 6 14.5552 6.07525 15.384 6.24973C16.2026 6.42208 16.6849 6.67488 17 6.97337C17.6424 7.58183 18 8.76908 18 11.611V14.5512C15.9298 15.0841 14.4 16.9634 14.4 19.2C14.4 21.8509 16.5491 24 19.2 24C21.8509 24 24 21.8509 24 19.2C24 16.9634 22.4702 15.0841 20.4 14.5512V11.611C20.4 8.84402 20.123 6.6258 18.6505 5.23097C17.9082 4.52783 16.9631 4.12955 15.8784 3.90121C14.8039 3.67501 13.5157 3.6 12.0096 3.6H9.44878C8.91593 1.52972 7.03661 0 4.8 0C2.14903 0 0 2.14903 0 4.8Z"
              fill="white"/>
    </g>
    <defs>
        <clipPath id="clip0_6_2">
            <rect width="24" height="24" fill="white"/>
        </clipPath>
    </defs>
</svg>
