<svg width="24" height="24" viewBox="0 0 24 24" fill="none" xmlns="http://www.w3.org/2000/svg">
<path d="M5.17233 2.68518C5.71695 2.32128 6.2888 2.00565 6.88131 1.7403C8.56195 0.987661 9.40226 0.611334 10.5202 1.33559C11.6381 2.05986 11.6381 3.24793 11.6381 5.62406V7.46166C11.6381 9.77163 11.6381 10.9266 12.3558 11.6443C13.0734 12.3619 14.2284 12.3619 16.5384 12.3619H18.376C20.7521 12.3619 21.9402 12.3619 22.6644 13.4798C23.3887 14.5978 23.0123 15.438 22.2597 17.1187C21.9943 17.7113 21.6787 18.2831 21.3149 18.8277C20.036 20.7416 18.2184 22.2332 16.0918 23.1142C13.9652 23.995 11.6252 24.2254 9.36764 23.7764C7.11007 23.3273 5.03635 22.2189 3.40873 20.5913C1.78111 18.9637 0.672686 16.89 0.223626 14.6324C-0.225433 12.3748 0.00505018 10.0348 0.885908 7.90819C1.76677 5.78161 3.25845 3.96399 5.17233 2.68518Z" fill="white"/>
<path d="M23.8226 5.70859C22.8281 3.1841 20.8159 1.17191 18.2914 0.177391C16.403 -0.566578 14.7008 1.14419 14.7008 3.17395V8.0742C14.7008 8.75078 15.2492 9.29924 15.9258 9.29924H20.8261C22.8559 9.29924 24.5666 7.59708 23.8226 5.70859Z" fill="white"/>
</svg>
