<svg width="24" height="24" viewBox="0 0 24 24" fill="none" xmlns="http://www.w3.org/2000/svg">
    <g clip-path="url(#clip0_5_2)">
        <path d="M9.35999 14.4C9.12269 14.4 8.89066 14.3296 8.69332 14.1978C8.49598 14.0659 8.34217 13.8784 8.25134 13.6591C8.16052 13.44 8.13676 13.1986 8.18306 12.9658C8.22935 12.733 8.34365 12.5193 8.51147 12.3514C8.67929 12.1836 8.89312 12.0693 9.12584 12.0231C9.35864 11.9767 9.59999 12.0004 9.81914 12.0913C10.0384 12.1821 10.2259 12.336 10.3578 12.5332C10.4896 12.7306 10.56 12.9627 10.56 13.2C10.56 13.3576 10.5289 13.5136 10.4686 13.6591C10.4083 13.8048 10.32 13.9371 10.2085 14.0485C10.0971 14.16 9.96479 14.2483 9.81914 14.3086C9.67364 14.3689 9.51764 14.4 9.35999 14.4ZM24 12C24 14.3734 23.2962 16.6935 21.9777 18.6669C20.659 20.6403 18.7849 22.1782 16.5922 23.0865C14.3995 23.9947 11.9866 24.2325 9.65894 23.7694C7.33114 23.3064 5.19295 22.1635 3.51472 20.4853C1.83649 18.807 0.693598 16.6689 0.230579 14.341C-0.232441 12.0133 0.00520429 9.60044 0.913453 7.40779C1.8217 5.21507 3.35977 3.34093 5.33315 2.02236C7.30654 0.703784 9.62669 0 12 0C15.1825 0 18.2349 1.26427 20.4853 3.51472C22.7356 5.76515 24 8.8174 24 12ZM17.595 10.005C17.1814 10.0293 16.7914 10.2057 16.5 10.5C15.2662 9.68459 13.8237 9.24194 12.345 9.22499L13.185 5.42999L15.87 6.02999C15.868 6.18686 15.8971 6.34258 15.9558 6.48808C16.0146 6.63359 16.1014 6.766 16.2117 6.87763C16.3219 6.98926 16.4533 7.07789 16.5981 7.13837C16.7428 7.19887 16.8981 7.23001 17.055 7.22999C17.3746 7.22605 17.6799 7.0963 17.9044 6.86887C18.1291 6.64144 18.255 6.33464 18.255 6.01499C18.264 5.74072 18.1774 5.47184 18.0103 5.25426C17.8431 5.03665 17.6055 4.88383 17.3382 4.82187C17.0709 4.7599 16.7904 4.79265 16.5444 4.91449C16.2985 5.03634 16.1026 5.23975 15.99 5.48999L12.99 4.83C12.9186 4.8163 12.8446 4.8304 12.7833 4.86945C12.7219 4.90849 12.6778 4.9695 12.66 5.04L11.73 9.22499C10.2519 9.24614 8.81051 9.68834 7.57499 10.5C7.41262 10.3323 7.21564 10.2021 6.99776 10.1184C6.77989 10.0347 6.54638 9.99944 6.31352 10.0153C6.08066 10.0311 5.85404 10.0974 5.64946 10.2097C5.44489 10.3221 5.26727 10.4778 5.129 10.6657C4.99075 10.8538 4.89515 11.0698 4.84891 11.2986C4.80266 11.5273 4.80686 11.7634 4.86122 11.9904C4.91558 12.2173 5.01878 12.4297 5.16365 12.6127C5.30852 12.7957 5.49155 12.945 5.69999 13.05C5.67706 13.2994 5.67706 13.5505 5.69999 13.8C5.69999 16.335 8.56499 18.405 12.09 18.405C15.615 18.405 18.48 16.335 18.48 13.8C18.4806 13.5423 18.4503 13.2855 18.39 13.035C18.6931 12.8632 18.9322 12.5976 19.071 12.2781C19.2099 11.9586 19.2411 11.6026 19.1598 11.2638C19.0785 10.9251 18.889 10.6219 18.6204 10.4002C18.3516 10.1787 18.018 10.0504 17.67 10.035L17.595 10.005ZM14.265 15.63C13.5909 16.0534 12.811 16.278 12.015 16.278C11.2189 16.278 10.4391 16.0534 9.76499 15.63C9.70964 15.5794 9.63749 15.5514 9.56249 15.5514C9.48749 15.5514 9.41534 15.5794 9.35999 15.63C9.33089 15.6567 9.30764 15.6891 9.29174 15.7252C9.27584 15.7614 9.26774 15.8005 9.26774 15.84C9.26774 15.8794 9.27584 15.9186 9.29174 15.9547C9.30764 15.9909 9.33089 16.0233 9.35999 16.05C10.1478 16.5846 11.0779 16.8703 12.03 16.8703C12.982 16.8703 13.9122 16.5846 14.7 16.05C14.7291 16.0233 14.7523 15.9909 14.7682 15.9547C14.7841 15.9186 14.7924 15.8794 14.7924 15.84C14.7924 15.8005 14.7841 15.7614 14.7682 15.7252C14.7523 15.6891 14.7291 15.6567 14.7 15.63C14.6719 15.6004 14.6382 15.577 14.6008 15.561C14.5635 15.5449 14.5231 15.5365 14.4825 15.5365C14.4418 15.5365 14.4015 15.5449 14.3641 15.561C14.3268 15.577 14.293 15.6004 14.265 15.63ZM14.64 12C14.4027 12 14.1706 12.0703 13.9732 12.2022C13.776 12.334 13.6221 12.5215 13.5313 12.7408C13.4406 12.96 13.4167 13.2013 13.4631 13.4341C13.5093 13.6669 13.6236 13.8807 13.7914 14.0485C13.9593 14.2164 14.173 14.3307 14.4058 14.3769C14.6386 14.4232 14.88 14.3995 15.0993 14.3086C15.3184 14.2179 15.5059 14.064 15.6378 13.8667C15.7696 13.6693 15.84 13.4373 15.84 13.2C15.84 12.8817 15.7135 12.5764 15.4885 12.3514C15.2635 12.1264 14.9583 12 14.64 12Z"
              fill="white"/>
    </g>
    <defs>
        <clipPath id="clip0_5_2">
            <rect width="24" height="24" fill="white"/>
        </clipPath>
    </defs>
</svg>
