<svg width="1174" height="158" viewBox="0 0 1174 158" fill="none" xmlns="http://www.w3.org/2000/svg">
    <path d="M168.711 158H281.351V128.53H202.852V92.373H267.894V62.9028H202.852V29.4702H281.85V0H168.711V158ZM416.918 99.5549L343.154 0H292.316L308.265 20.0596V158.495H342.157V54.7304L418.413 158H451.059V0H416.918V99.5549ZM117.375 76.7712C132.327 74.047 144.788 60.1787 144.788 40.6144C144.788 19.5643 129.337 0 98.6848 0H0L15.4506 19.5643V158.248H102.174C132.826 158.248 148.775 139.179 148.775 115.404C148.027 95.8401 134.57 79 117.375 76.7712ZM49.3424 29.7179H91.9563C103.42 29.7179 110.647 36.4044 110.647 46.3103C110.647 56.2163 103.42 62.9028 91.9563 62.9028H49.3424V29.7179ZM93.4515 128.777H49.3424V92.373H93.4515C106.41 92.373 113.637 100.545 113.637 110.451C113.637 121.843 105.912 128.53 93.4515 128.777ZM948.969 99.5549H966.662V118.129C957.442 125.558 945.978 129.768 934.017 130.016C905.607 130.016 885.671 108.47 885.671 79.4953C885.671 50.5204 905.856 28.9749 934.017 28.9749C948.72 28.9749 962.426 36.652 970.4 49.0345L997.314 34.1755C985.851 16.0972 965.665 0 933.767 0C888.661 0 851.281 30.9561 851.281 79C851.281 127.044 888.163 158 933.767 158C958.688 158.495 982.362 147.846 998.81 129.52V71.0752H926.042L948.969 99.5549ZM795.708 99.5549L721.695 0H671.106L686.806 20.0596V158.495H720.947V54.7304L797.204 158H829.6V0H795.708V99.5549ZM1111.45 0H1045.91L1061.61 20.0596L1058.87 27.7367L1008.03 158.495H1046.41L1056.38 131.749H1124.91L1134.87 158.495H1173.25L1111.45 0ZM1065.1 102.031L1090.02 33.9279L1114.94 102.031H1065.1ZM617.278 0H651.419V158.743H617.278V0ZM590.115 27.2414V0H470.248V29.4702H545.508L470.248 131.006V158H591.361V128.53H514.357L590.115 27.2414Z"
          fill="#093451"/>
</svg>
