<svg width="2128" height="426" viewBox="0 0 2128 426" fill="none" xmlns="http://www.w3.org/2000/svg">
    <path d="M96.0083 213L48.2347 260.836L0 213L48.2169 164.738L96.0083 213ZM212.8 96.0985L295.083 178.459L343.317 130.214L212.8 0L82.2827 130.64L130.517 178.884L212.8 96.0985ZM377.383 164.738L329.592 213L377.809 261.262L426.008 213L377.383 164.738ZM212.8 329.902L130.517 247.115L82.2827 295.378L212.8 426L343.317 295.36L295.083 247.115L212.8 329.902ZM212.8 260.854L261.017 212.574L212.8 164.756L164.583 213L212.8 260.836V260.854ZM719.867 265.824V265.007C719.867 233.803 703.233 217.988 676.225 207.586C692.841 198.445 706.975 183.446 706.975 157.247V156.431C706.975 119.812 677.467 96.0985 630.083 96.0985H521.608V329.493H632.583C685.358 329.902 719.867 308.264 719.867 265.842V265.824ZM655.85 165.998C655.85 183.464 641.716 190.529 618.858 190.529H571.492V141.024H622.192C643.809 141.024 655.85 149.757 655.85 165.164V165.998ZM668.742 259.186C668.742 276.652 655.034 284.568 632.566 284.568H571.492V233.377H630.917C657.109 233.377 668.742 242.962 668.742 258.76V259.186ZM827.508 329.902V96.0985H775.975V329.493H827.508V329.902ZM1103.49 329.902V96.0985H1052.77V240.051L943.467 96.0985H896.083V329.493H946.8V181.387L1059.85 329.902H1103.47H1103.49ZM1387.76 329.902L1287.62 94.856H1240.25L1140.08 329.902H1192.87L1214.06 277.486H1312.57L1333.76 329.902H1387.79H1387.76ZM1294.25 232.135H1232.32L1263.5 156.431L1294.25 232.135ZM1632.58 329.902V96.0985H1581.87V240.051L1472.56 96.0985H1425.17V329.493H1475.89V181.387L1588.94 329.902H1632.57H1632.58ZM1897.32 292.041L1864.5 259.186C1846.2 275.817 1829.99 286.627 1802.98 286.627C1763.08 286.627 1735.24 253.346 1735.24 213.408V212.166C1735.24 172.228 1763.49 139.373 1802.98 139.373C1826.25 139.373 1844.55 149.348 1862.83 165.572L1895.66 127.711C1874.06 106.5 1847.87 91.519 1803.82 91.519C1732.33 91.519 1682.04 146.011 1682.04 212.166V213C1682.04 279.971 1733.15 333.221 1801.74 333.221C1846.63 333.647 1873.23 317.832 1897.32 292.041ZM2116.37 329.902V284.142H1989.59V235.046H2099.73V189.286H1989.59V141.858H2114.7V96.0985H1938.89V329.493H2116.37V329.902Z"
          fill="#F0B90B"/>
</svg>
