<svg xmlns="http://www.w3.org/2000/svg" width="114" height="114" viewBox="0 0 114 114" fill="none">
    <path d="M74.3505 56.9999C74.3505 66.5826 66.5827 74.3504 57 74.3504C47.4173 74.3504 39.6495 66.5826 39.6495 56.9999C39.6495 47.4172 47.4173 39.6494 57 39.6494C66.5827 39.6494 74.3505 47.4172 74.3505 56.9999Z"
          stroke="#00FF00" stroke-width="7" stroke-linecap="round" stroke-linejoin="round"/>
    <path d="M62.1261 6.34028C60.9599 6 59.6401 6 57 6C54.3599 6 53.0401 6 51.8739 6.34028C50.1671 6.83833 48.6592 7.85912 47.5627 9.25896C46.8136 10.2153 46.3234 11.4409 45.3432 13.8921C43.9337 17.4156 40.0223 19.23 36.4219 18.0303L33.1875 16.9526C30.8931 16.1878 29.7459 15.8054 28.6211 15.7399C26.9689 15.6436 25.3245 16.0318 23.8897 16.8568C22.913 17.4184 22.058 18.2735 20.3478 19.9836C18.5302 21.8012 17.6214 22.71 17.0441 23.7474C16.1959 25.2714 15.837 27.0196 16.0163 28.7546C16.1383 29.9354 16.6157 31.1288 17.5703 33.5154C19.0653 37.253 17.6271 41.5231 14.1754 43.5945L12.6029 44.5383C10.1951 45.9829 8.99121 46.7054 8.11673 47.6999C7.34289 48.5799 6.75939 49.6107 6.40284 50.727C6 51.9884 6 53.4062 6 56.2424C6 59.6004 6 61.2789 6.53618 62.7165C7.00997 63.9864 7.78058 65.1243 8.78369 66.0361C9.91895 67.0674 11.4624 67.6851 14.5491 68.9198C17.7036 70.1812 19.3278 73.6832 18.2534 76.9064L17.0342 80.5643C16.1897 83.0973 15.7675 84.3643 15.7291 85.6087C15.6829 87.1053 16.0328 88.5871 16.7433 89.9046C17.3342 91.0011 18.2784 91.9452 20.1667 93.8333C22.055 95.7215 22.9992 96.6655 24.0951 97.2566C25.4129 97.9672 26.8949 98.3174 28.3913 98.2709C29.6358 98.2324 30.9025 97.8102 33.436 96.9659L36.4222 95.9702C40.0223 94.7706 43.9338 96.5845 45.3432 100.108C46.3234 102.559 46.8136 103.785 47.5627 104.741C48.6592 106.141 50.1671 107.162 51.8739 107.66C53.0401 108 54.3599 108 57 108C59.6401 108 60.9599 108 62.1261 107.66C63.8329 107.162 65.3408 106.141 66.4373 104.741C67.1864 103.785 67.6766 102.559 68.6569 100.108C70.0662 96.5845 73.9779 94.7706 77.5774 95.9714L80.5614 96.9664C83.095 97.8108 84.3621 98.2329 85.6065 98.2715C87.103 98.3174 88.5849 97.9677 89.9024 97.2571C90.9983 96.6661 91.9429 95.722 93.8311 93.8339C95.7192 91.9458 96.6633 91.0011 97.2543 89.9052C97.9649 88.5877 98.3145 87.1053 98.2686 85.6093C98.2301 84.3649 97.8079 83.0978 96.9636 80.5643L95.7453 76.9093C94.6703 73.6849 96.2949 70.1818 99.4507 68.9198C102.537 67.6851 104.081 67.0674 105.217 66.0361C106.22 65.1243 106.99 63.9864 107.464 62.7165C108 61.2789 108 59.6004 108 56.2424C108 53.4062 108 51.9884 107.597 50.727C107.241 49.6107 106.657 48.5799 105.883 47.6999C105.009 46.7054 103.805 45.9829 101.397 44.5383L99.8224 43.5936C96.3709 41.5225 94.9321 37.2525 96.4275 33.515C97.3818 31.1284 97.8595 29.935 97.9813 28.7541C98.1604 27.0191 97.8017 25.271 96.9534 23.7469C96.376 22.7096 95.4676 21.8008 93.6497 19.9832C91.9395 18.2731 91.0844 17.418 90.1081 16.8564C88.6733 16.0314 87.0288 15.6432 85.3764 15.7394C84.2516 15.805 83.1046 16.1874 80.8102 16.9521L77.5779 18.0296C73.9779 19.2296 70.0662 17.4155 68.6569 13.8921C67.6766 11.4409 67.1864 10.2153 66.4373 9.25896C65.3408 7.85912 63.8329 6.83833 62.1261 6.34028Z"
          stroke="#00FF00" stroke-width="11" stroke-linecap="round" stroke-linejoin="round"/>
</svg>