<svg xmlns="http://www.w3.org/2000/svg" width="84" height="114" viewBox="0 0 84 114" fill="none">
    <path fill-rule="evenodd" clip-rule="evenodd"
          d="M43.3702 0.180037C45.6598 0.791021 47.25 2.84124 47.25 5.18227V41.4547L78.75 41.4547C80.63 41.4547 82.3662 42.4467 83.3022 44.0557C84.2388 45.6645 84.232 47.6445 83.2849 49.2472L46.5349 111.429C45.3395 113.451 42.9193 114.431 40.6297 113.82C38.3402 113.209 36.75 111.159 36.75 108.818V72.5455H5.25C3.37013 72.5455 1.6338 71.5532 0.697519 69.9443C-0.238766 68.3353 -0.232047 66.3554 0.715157 64.7527L37.465 2.57132C38.6605 0.549187 41.0807 -0.430899 43.3702 0.180037ZM14.3905 62.182H42C44.8996 62.182 47.25 64.5019 47.25 67.3638V89.6506L69.6097 51.8184L42 51.8184C39.1004 51.8184 36.75 49.4985 36.75 46.6365V24.3493L14.3905 62.182Z"
          fill="#00FF00"/>
</svg>