<svg viewBox="0 0 2143 369" fill="none" xmlns="http://www.w3.org/2000/svg">
<path d="M362.805 184.298V183.584C362.448 82.4972 281.039 0 181.402 0C81.7657 0 0 82.4972 0 184.298C0 286.112 81.3957 368.443 181.402 368.443C227.292 368.475 271.427 350.808 304.625 319.119C307.895 316.131 309.844 311.966 310.044 307.541C310.243 303.115 308.677 298.792 305.69 295.522C302.703 292.251 298.539 290.302 294.115 290.102C289.69 289.902 285.368 291.468 282.098 294.456L281.741 294.813C267.417 308.433 250.489 319.018 231.973 325.931C213.458 332.845 193.736 335.945 173.993 335.045C154.25 334.146 134.892 329.265 117.082 320.696C99.2711 312.127 83.3756 300.047 70.3491 285.181L147.841 160.886V218.402C147.841 245.884 158.556 254.828 167.562 257.329C176.568 259.829 190.076 258.018 204.708 234.81L247.223 165.76C248.358 163.744 249.672 161.83 251.126 160.031V195.054C251.126 220.762 261.484 241.482 279.33 251.472C287.568 255.959 296.867 258.13 306.239 257.755C315.612 257.379 324.707 254.472 332.56 249.342C353.174 235.958 364.246 212.52 362.805 184.298ZM315.659 220.469C312.796 222.441 309.458 223.613 305.991 223.862C302.524 224.111 299.053 223.428 295.938 221.885C288.795 217.611 284.496 207.978 284.496 194.76V154.277C284.496 135.012 276.996 121.067 264.15 117.52C242.35 110.936 225.946 137.87 219.862 147.872L181.402 209.65V133.583C181.045 116.091 175.318 105.731 164.603 102.503C157.459 100.372 146.744 101.457 136.399 117.175L50.335 255.032C38.8856 233.211 32.8853 208.942 32.8466 184.298C32.8466 101.074 99.6112 33.5679 181.402 33.5679C263.194 33.5679 329.958 101.074 329.958 184.298V185.026C330.813 201.076 325.659 213.962 315.672 220.367L315.659 220.469ZM615.641 121.437C618.007 122.953 619.984 125.003 621.413 127.423C622.842 129.843 623.683 132.565 623.868 135.369C623.843 139.469 622.228 143.399 619.363 146.331C616.498 149.263 612.607 150.969 608.51 151.088C606.567 150.939 604.646 150.576 602.783 150.003C592.779 142.497 580.643 138.376 568.137 138.24C537.791 138.24 517.088 162.864 517.088 193.574C517.088 224.284 538.161 248.589 568.137 248.589C582.547 248.568 596.38 242.93 606.699 232.87C609.326 231.02 612.439 230.025 615.641 230.012C618.203 229.984 620.728 230.637 622.955 231.905C625.183 233.172 627.034 235.009 628.318 237.227C629.603 239.446 630.276 241.965 630.267 244.529C630.258 247.092 629.569 249.607 628.269 251.817C627.032 253.986 625.271 255.836 623.141 257.176C612.686 265.87 600.294 271.922 587.01 274.822C573.726 277.721 559.94 277.383 546.814 273.835C533.688 270.288 521.608 263.635 511.592 254.438C501.576 245.241 493.919 233.769 489.265 220.991C484.611 208.213 483.098 194.503 484.853 181.017C486.609 167.532 491.581 154.666 499.35 143.506C507.119 132.345 517.458 123.217 529.494 116.891C541.53 110.566 554.911 107.228 568.507 107.16C585.32 106.904 601.8 111.88 615.641 121.437ZM700.621 157.046C684.601 156.978 669.207 163.265 657.814 174.529C646.421 185.793 639.957 201.116 639.839 217.139C639.938 233.251 646.354 248.68 657.709 260.109C669.064 271.537 684.449 278.053 700.557 278.253C731.988 278.253 758.775 250.031 758.775 217.139C758.775 184.273 732.409 157.046 700.621 157.046ZM700.264 248.487C685.275 248.487 672.774 234.912 672.774 217.407C672.774 199.2 685.275 188.113 700.264 188.113C714.206 188.113 725.967 199.558 725.967 217.407C725.967 235.269 714.206 248.589 700.264 248.589V248.487ZM778.827 259.663V175.354C778.787 173.169 779.182 170.996 779.99 168.965C780.798 166.933 782.002 165.083 783.533 163.523C785.064 161.962 786.89 160.722 788.905 159.875C790.92 159.028 793.084 158.591 795.27 158.59C799.668 158.647 803.865 160.442 806.946 163.582C810.026 166.723 811.74 170.955 811.712 175.354V259.663C811.743 264.065 810.031 268.3 806.95 271.444C803.87 274.587 799.67 276.384 795.27 276.441C790.892 276.313 786.735 274.494 783.669 271.365C780.604 268.237 778.868 264.043 778.827 259.663ZM776.327 126.795C776.256 124.25 776.692 121.716 777.608 119.341C778.525 116.966 779.905 114.797 781.668 112.96C783.431 111.124 785.541 109.656 787.876 108.643C790.211 107.629 792.725 107.09 795.27 107.058C797.831 107.088 800.36 107.622 802.715 108.63C805.069 109.639 807.201 111.101 808.99 112.934C810.779 114.767 812.189 116.935 813.14 119.313C814.09 121.691 814.563 124.234 814.531 126.795C814.531 131.861 812.52 136.719 808.938 140.301C805.357 143.883 800.5 145.895 795.436 145.895C790.371 145.895 785.514 143.883 781.933 140.301C778.352 136.719 776.327 131.861 776.327 126.795ZM874.535 213.962V259.663C874.535 264.025 872.803 268.208 869.719 271.292C866.636 274.377 862.454 276.109 858.093 276.109C853.732 276.109 849.55 274.377 846.466 271.292C843.383 268.208 841.651 264.025 841.651 259.663V171.438C841.651 168.074 842.986 164.848 845.364 162.47C847.742 160.092 850.967 158.756 854.33 158.756C857.693 158.756 860.918 160.092 863.296 162.47C865.673 164.848 867.009 168.074 867.009 171.438C871.695 166.648 877.338 162.9 883.569 160.438C889.799 157.976 896.479 156.855 903.172 157.148C936.045 157.148 950.676 181.798 950.676 210.02V259.663C950.676 264.025 948.943 268.208 945.86 271.292C942.776 274.377 938.594 276.109 934.233 276.109C929.872 276.109 925.69 274.377 922.607 271.292C919.523 268.208 917.791 264.025 917.791 259.663V213.962C917.791 199.66 916.018 187.654 895.302 187.654C880.684 187.654 874.599 199.787 874.599 213.962H874.535ZM1057.02 231.454C1055.35 231.458 1053.71 231.07 1052.22 230.321C1050.72 229.572 1049.43 228.483 1048.44 227.142L1010.23 185.714V259.663C1010.29 261.861 1009.91 264.048 1009.12 266.096C1008.32 268.144 1007.12 270.011 1005.58 271.587C1004.05 273.163 1002.22 274.416 1000.19 275.271C998.17 276.127 995.995 276.567 993.797 276.567C991.599 276.567 989.424 276.127 987.399 275.271C985.375 274.416 983.542 273.163 982.01 271.587C980.478 270.011 979.277 268.144 978.478 266.096C977.68 264.048 977.3 261.861 977.361 259.663V113.207C977.868 111.993 978.709 110.947 979.785 110.19C980.862 109.434 982.131 108.998 983.446 108.933C986.278 109.414 988.826 110.939 990.589 113.207L1051.66 181.798C1052.29 182.681 1053.08 183.429 1054 183.995C1054.93 184.561 1055.95 184.933 1057.02 185.089C1059.15 184.677 1061.05 183.507 1062.38 181.798L1123.43 113.207C1124.28 112.057 1125.34 111.087 1126.57 110.353C1127.79 109.619 1129.15 109.137 1130.56 108.933C1131.9 108.9 1133.21 109.297 1134.31 110.067C1135.4 110.836 1136.22 111.937 1136.64 113.207V259.676C1136.69 261.862 1136.29 264.034 1135.48 266.066C1134.67 268.097 1133.47 269.947 1131.94 271.508C1130.41 273.069 1128.58 274.309 1126.57 275.156C1124.55 276.003 1122.39 276.44 1120.2 276.441C1115.8 276.377 1111.61 274.578 1108.53 271.436C1105.46 268.293 1103.75 264.062 1103.77 259.663V185.714L1065.53 227.142C1063.32 229.602 1060.27 231.142 1056.98 231.454H1057.02ZM1365.91 187.526H1362.32C1341.62 188.572 1337.7 200.387 1337.7 213.834V259.536C1337.7 263.897 1335.97 268.078 1332.88 271.161C1329.8 274.245 1325.62 275.978 1321.26 275.982C1316.9 275.975 1312.72 274.238 1309.64 271.152C1306.56 268.066 1304.83 263.884 1304.83 259.523V171.45C1304.84 168.086 1306.18 164.86 1308.56 162.481C1310.94 160.102 1314.16 158.762 1317.52 158.756C1320.89 158.762 1324.11 160.102 1326.49 162.482C1328.86 164.862 1330.2 168.087 1330.2 171.45C1342.33 160.006 1352.34 157.505 1362.32 157.135H1365.61C1369.62 157.241 1373.43 158.905 1376.22 161.774C1379.02 164.642 1380.59 168.489 1380.6 172.497C1380.6 176.413 1379.07 180.174 1376.33 182.98C1373.6 185.786 1369.89 187.417 1365.97 187.526H1365.91ZM1492.68 251.804C1494.18 254.164 1495.05 256.869 1495.18 259.663C1495 263.968 1493.21 268.048 1490.16 271.094C1487.12 274.141 1483.04 275.931 1478.73 276.109C1473.04 276.109 1468.02 271.797 1464.1 266.796L1426.27 222.804V259.293C1426.27 263.653 1424.54 267.835 1421.45 270.918C1418.37 274.001 1414.19 275.733 1409.83 275.733C1405.47 275.733 1401.29 274.001 1398.21 270.918C1395.13 267.835 1393.4 263.653 1393.4 259.293V125.392C1393.39 122.138 1394.35 118.955 1396.15 116.248C1397.96 113.54 1400.52 111.43 1403.53 110.184C1406.54 108.939 1409.84 108.615 1413.03 109.253C1416.22 109.891 1419.15 111.463 1421.45 113.769C1424.53 116.843 1426.27 121.041 1426.27 125.379V208.948L1464.1 167.176C1468.02 162.877 1472.69 158.245 1478.38 158.245C1482.55 158.429 1486.49 160.192 1489.41 163.178C1492.33 166.163 1494 170.147 1494.09 174.321C1494.11 176.971 1493.36 179.569 1491.95 181.81L1461.97 214.689L1492.68 251.855V251.804ZM1691.24 277.883H1682.29C1657.3 277.883 1642.65 266.796 1642.65 227.869V187.526H1634.1C1630.07 187.526 1626.21 185.925 1623.36 183.076C1620.51 180.226 1618.91 176.361 1618.91 172.331C1618.91 168.301 1620.51 164.436 1623.36 161.586C1626.21 158.736 1630.07 157.135 1634.1 157.135H1642.52V126.068C1642.44 122.772 1643.36 119.53 1645.16 116.766C1646.95 114.002 1649.54 111.846 1652.58 110.579C1654.6 109.737 1656.77 109.303 1658.95 109.303C1663.34 109.377 1667.53 111.177 1670.61 114.314C1673.68 117.451 1675.4 121.673 1675.39 126.068V157.046H1688.94C1692.91 157.166 1696.67 158.843 1699.41 161.715C1702.16 164.587 1703.66 168.423 1703.6 172.394C1703.46 176.275 1701.89 179.967 1699.18 182.747C1696.46 185.526 1692.81 187.194 1688.94 187.424H1675.39V221.362C1675.39 243.856 1676.44 248.487 1686.44 248.487H1691.11C1694.99 248.504 1698.71 250.056 1701.45 252.805C1704.19 255.554 1705.73 259.277 1705.74 263.159C1705.65 267.013 1704.08 270.685 1701.36 273.41C1698.63 276.136 1694.96 277.706 1691.11 277.793L1691.24 277.883ZM1850.12 121.437C1852.48 122.956 1854.46 125.008 1855.88 127.427C1857.31 129.847 1858.15 132.566 1858.34 135.369C1858.32 139.47 1856.7 143.402 1853.84 146.335C1850.97 149.268 1847.08 150.972 1842.98 151.088C1841.04 150.931 1839.13 150.568 1837.27 150.003C1827.27 142.492 1815.14 138.37 1802.65 138.24C1772.27 138.24 1751.56 162.864 1751.56 193.574C1751.56 224.284 1772.63 248.589 1802.65 248.589C1817.05 248.568 1830.89 242.93 1841.21 232.87C1843.82 231.033 1846.93 230.038 1850.12 230.012C1852.05 229.995 1853.97 230.36 1855.75 231.087C1857.54 231.814 1859.16 232.889 1860.53 234.248C1862.8 236.515 1864.25 239.472 1864.66 242.655C1865.07 245.837 1864.41 249.065 1862.78 251.83C1861.53 254.01 1859.75 255.843 1857.61 257.163C1847.16 265.841 1834.78 271.878 1821.51 274.765C1808.24 277.651 1794.46 277.303 1781.36 273.749C1761.57 268.398 1744.39 256.053 1733.01 239.002C1721.63 221.951 1716.81 201.351 1719.45 181.019C1722.08 160.684 1732 141.994 1747.36 128.412C1762.72 114.831 1782.48 107.28 1802.98 107.16C1819.8 106.839 1836.3 111.835 1850.12 121.437ZM1262.71 158.232C1261.04 158.232 1259.38 158.566 1257.84 159.216C1256.3 159.865 1254.91 160.817 1253.74 162.014C1252.57 163.212 1251.66 164.631 1251.05 166.188C1250.44 167.745 1250.14 169.408 1250.19 171.08L1249.5 175.036C1244.79 169.455 1238.94 164.943 1232.35 161.801C1225.75 158.659 1218.57 156.96 1211.27 156.816C1179.15 156.816 1155.94 183.941 1155.94 216.782C1155.94 249.635 1178.78 277.883 1209.49 277.883C1222.35 277.883 1242.7 272.154 1249.14 259.663L1249.87 263.58C1249.83 265.262 1250.15 266.932 1250.78 268.489C1251.42 270.045 1252.37 271.454 1253.58 272.628C1254.78 273.802 1256.21 274.717 1257.78 275.316C1259.35 275.915 1261.03 276.185 1262.71 276.109C1264.4 276.113 1266.07 275.782 1267.64 275.137C1269.2 274.492 1270.62 273.545 1271.81 272.35C1273.01 271.155 1273.95 269.736 1274.6 268.174C1275.24 266.612 1275.57 264.938 1275.57 263.249V171.182C1275.52 167.778 1274.15 164.526 1271.76 162.111C1269.36 159.695 1266.11 158.305 1262.71 158.232ZM1214.85 248.589C1200.22 248.589 1188.78 234.682 1188.78 217.509C1188.78 200.349 1200.55 187.909 1214.85 187.909C1229.14 187.909 1242.01 199.685 1242.01 217.509C1242.01 235.333 1229.5 248.589 1214.85 248.589ZM1612.67 214.651C1611.94 177.855 1588.01 157.135 1556.25 157.135C1516.81 157.135 1500.16 185.714 1500.16 218.593C1500.16 260.391 1527.69 278.24 1560.89 278.24C1573.38 278.24 1586.6 276.441 1596.59 268.939C1598.66 267.724 1600.4 266.011 1601.65 263.955C1602.89 261.899 1603.61 259.565 1603.73 257.163C1603.75 253.627 1602.39 250.224 1599.93 247.685C1597.47 245.146 1594.11 243.674 1590.58 243.588C1587.55 243.613 1584.6 244.481 1582.03 246.088C1575.26 248.982 1567.96 250.437 1560.59 250.362C1552.37 250.362 1533.44 247.071 1533.44 227.512H1599.78C1603.17 227.447 1606.41 226.072 1608.81 223.675C1611.21 221.278 1612.6 218.045 1612.67 214.651ZM1533.37 206.358C1533.37 192.451 1548.04 187.82 1556.94 187.82C1565.86 187.82 1580.51 192.451 1580.87 206.358H1533.37ZM1981.13 158.232C1979.46 158.233 1977.8 158.568 1976.26 159.216C1974.72 159.865 1973.33 160.814 1972.16 162.009C1970.99 163.206 1970.08 164.626 1969.47 166.185C1968.86 167.744 1968.58 169.408 1968.63 171.08L1967.91 175.036C1963.21 169.454 1957.37 164.942 1950.78 161.8C1944.19 158.658 1937.01 156.959 1929.71 156.816C1897.56 156.816 1874.35 183.941 1874.35 216.782C1874.35 249.635 1897.36 277.883 1927.9 277.883C1940.75 277.883 1961.14 272.154 1967.54 259.663L1968.27 263.58C1968.25 265.26 1968.57 266.926 1969.21 268.478C1969.85 270.031 1970.79 271.438 1971.99 272.613C1973.2 273.789 1974.63 274.706 1976.2 275.307C1977.77 275.909 1979.45 276.182 1981.13 276.109C1983.67 276.108 1986.16 275.354 1988.27 273.942C1990.39 272.529 1992.04 270.522 1993.02 268.173C1993.65 266.617 1993.98 264.946 1993.98 263.249V171.182C1993.93 167.78 1992.56 164.532 1990.16 162.118C1987.77 159.703 1984.53 158.311 1981.13 158.232ZM1933.25 248.589C1918.99 248.589 1907.19 234.682 1907.19 217.509C1907.19 200.349 1918.64 187.909 1933.25 187.909C1947.89 187.909 1960.41 199.685 1960.41 217.509C1960.41 235.333 1947.99 248.589 1933.33 248.589H1933.25ZM2087.6 157.046C2080.44 156.915 2073.34 158.241 2066.71 160.943C2060.08 163.645 2054.07 167.667 2049.04 172.764C2049.04 164.573 2043.68 158.488 2036.55 158.488C2034.86 158.483 2033.18 158.812 2031.62 159.456C2030.06 160.1 2028.64 161.047 2027.44 162.242C2026.24 163.436 2025.29 164.856 2024.65 166.419C2024 167.982 2023.67 169.657 2023.67 171.348V309.945C2023.68 314.3 2025.41 318.474 2028.49 321.554C2031.57 324.634 2035.74 326.368 2040.1 326.378C2044.46 326.375 2048.63 324.643 2051.72 321.562C2054.8 318.481 2056.53 314.304 2056.54 309.945V268.25C2065.44 275.012 2079.74 277.883 2089.41 278.112C2120.49 278.112 2143 249.903 2143 217.024C2143 184.132 2119.4 157.046 2087.6 157.046ZM2083.66 248.487C2069.03 248.487 2056.54 235.346 2056.54 217.42C2056.54 199.494 2069.03 187.82 2083.66 187.82C2098.29 187.82 2109.73 199.596 2109.73 217.42C2109.73 234.669 2098.33 248.589 2083.66 248.589V248.487Z" fill="#3385FF"/>
</svg>
