<svg width="925" height="206" viewBox="0 0 925 206" fill="none" xmlns="http://www.w3.org/2000/svg">
<path d="M511.52 5.9917H493.815V200.34H511.52V5.9917Z" fill="#FF0000"/>
<path d="M737.618 5.9917H794.096V22.1911H774.886V200.34H757.108V22.1911H737.618V5.9917Z" fill="#FF0000"/>
<path d="M477.632 5.9917V200.34H459.09L432.582 82.313V200.34H415.186V5.9917H431.185L460.237 134.743V5.9917H477.632Z" fill="#FF0000"/>
<path d="M92.6809 5.9917V200.34H75.2853V33.7516L53.8183 200.34H39.333L18.2114 33.7516V200.34H0.705566V5.9917H30.3229L47.2848 123.16L63.2767 5.9917H92.6809Z" fill="#FF0000"/>
<path d="M308.292 200.399C320.625 183.642 328.065 163.799 329.786 143.073C331.506 122.348 327.44 101.552 318.038 82.9953C308.636 64.4391 294.268 48.8494 276.529 37.9585C258.789 27.0675 238.374 21.3018 217.551 21.3018C196.729 21.3018 176.314 27.0675 158.574 37.9585C140.835 48.8494 126.467 64.4391 117.065 82.9953C107.663 101.552 103.597 122.348 105.317 143.073C107.038 163.799 114.478 183.642 126.811 200.399H150.233C137.066 187.12 128.129 170.248 124.545 151.906C120.962 133.564 122.893 114.573 130.096 97.325C137.299 80.0771 149.45 65.3436 165.021 54.9802C180.591 44.6167 198.884 39.0867 217.596 39.0867C236.307 39.0867 254.6 44.6167 270.17 54.9802C285.741 65.3436 297.892 80.0771 305.095 97.325C312.298 114.573 314.229 133.564 310.646 151.906C307.062 170.248 298.125 187.12 284.958 200.399H308.292Z" fill="#FF0000"/>
<path d="M858.182 200.34H840.874L836.296 156.564H810.397L806.208 200.34H788.57L808.479 6.00635H835.48L858.182 200.34ZM834.664 139.014L822.905 31.8505L812.043 139.014H834.679H834.664Z" fill="#FF0000"/>
<path d="M646.73 175.656C647.027 177.275 646.964 178.939 646.545 180.531C646.126 182.123 645.362 183.604 644.307 184.868C643.252 186.133 641.931 187.15 640.438 187.848C638.946 188.546 637.318 188.908 635.67 188.908C634.022 188.908 632.394 188.546 630.901 187.848C629.409 187.15 628.088 186.133 627.033 184.868C625.977 183.604 625.213 182.123 624.795 180.531C624.376 178.939 624.312 177.275 624.609 175.656V28.8558C624.312 27.2366 624.376 25.5722 624.795 23.9802C625.213 22.3882 625.977 20.9076 627.033 19.6432C628.088 18.3789 629.409 17.3617 630.901 16.6636C632.394 15.9656 634.022 15.6037 635.67 15.6037C637.318 15.6037 638.946 15.9656 640.438 16.6636C641.931 17.3617 643.252 18.3789 644.307 19.6432C645.362 20.9076 646.126 22.3882 646.545 23.9802C646.964 25.5722 647.027 27.2366 646.73 28.8558L646.686 35.8728V72.5141H664.486V44.2771V36.1077C664.361 11.8857 654.873 0.33252 635.089 0.33252C617.451 0.33252 605.986 12.8105 605.986 31.9973V39.1318V160.785V168.661C605.986 193.565 615.658 205.706 635.508 205.706C655.358 205.706 664.515 193.786 664.515 168.147V97.4407H631.775V114.462H646.657V169.211L646.73 175.656Z" fill="#FF0000"/>
<path d="M719.664 171.002V120.473L679.118 90.2033V33.7293C679.118 11.5332 689.12 0.185547 708.699 0.185547C728.593 0.185547 737.64 11.4451 737.75 36.4011L737.802 44.1448V72.8002H719.664V34.3679L719.627 28.8629C719.935 27.2526 719.884 25.5942 719.476 24.0061C719.068 22.418 718.315 20.9394 717.269 19.6759C716.223 18.4124 714.91 17.3952 713.425 16.697C711.94 15.9988 710.318 15.6367 708.677 15.6367C707.035 15.6367 705.414 15.9988 703.929 16.697C702.443 17.3952 701.131 18.4124 700.085 19.6759C699.039 20.9394 698.285 22.418 697.877 24.0061C697.47 25.5942 697.418 27.2526 697.726 28.8629V81.755L737.794 111.988V170.422C737.794 193.264 727.608 205.5 708.581 205.5C689.304 205.5 679.28 193.969 679.184 171.685V164V125.964H697.734V175.663C697.425 177.273 697.477 178.932 697.885 180.52C698.292 182.108 699.046 183.587 700.092 184.85C701.138 186.113 702.451 187.131 703.936 187.829C705.421 188.527 707.043 188.889 708.684 188.889C710.326 188.889 711.947 188.527 713.432 187.829C714.917 187.131 716.23 186.113 717.276 184.85C718.322 183.587 719.076 182.108 719.483 180.52C719.891 178.932 719.943 177.273 719.634 175.663L719.664 171.002Z" fill="#FF0000"/>
<path d="M404.434 200.34H386.693C384.237 193.652 383.017 186.574 383.092 179.451L382.945 169.512L382.894 164.462V126.522C383.084 125.052 382.953 123.558 382.511 122.144C382.069 120.729 381.326 119.426 380.333 118.325C379.339 117.225 378.119 116.351 376.756 115.765C375.393 115.18 373.919 114.895 372.436 114.932H359.773V200.34H342.407V6.00635H365.072C390.529 6.00635 400.348 15.3061 400.348 40.1667V76.6685C400.348 93.022 397.614 99.8776 384.797 104.597C384.981 104.649 385.157 104.729 385.333 104.781C397.438 108.304 400.149 112.855 400.289 128.225L400.348 135.286V170.753C399.931 180.78 401.315 190.8 404.434 200.34ZM359.773 21.2956V98.2628H365.99C368.257 98.6599 370.586 98.5141 372.785 97.8374C374.984 97.1608 376.991 95.9726 378.641 94.3706C380.291 92.7685 381.537 90.7983 382.276 88.6218C383.015 86.4453 383.227 84.1246 382.894 81.8506V42.2146C382.894 26.2574 379.219 21.2662 367.372 21.2662H359.773V21.2956Z" fill="#FF0000"/>
<path d="M924.832 200.34H907.076C904.619 193.652 903.401 186.574 903.482 179.451L903.335 169.512L903.269 164.47V126.522C903.459 125.053 903.329 123.56 902.887 122.145C902.446 120.731 901.703 119.429 900.71 118.328C899.718 117.228 898.499 116.354 897.136 115.768C895.774 115.182 894.301 114.896 892.818 114.932H880.17V200.34H862.797V6.00635H885.469C910.927 6.00635 920.745 15.3061 920.745 40.1667V76.6685C920.745 93.022 918.004 99.8776 905.216 104.597C905.385 104.649 905.562 104.729 905.753 104.781C917.85 108.304 920.569 112.855 920.709 128.225L920.753 135.286V170.753C920.329 180.779 921.711 190.801 924.832 200.34ZM880.17 21.2956V98.2628H886.41C888.673 98.6519 890.997 98.5002 893.19 97.82C895.383 97.1398 897.384 95.9505 899.029 94.3495C900.674 92.7484 901.915 90.7812 902.652 88.6087C903.389 86.4362 903.6 84.1203 903.269 81.8506V42.2146C903.269 26.2574 899.594 21.2662 887.747 21.2662H880.17V21.2956Z" fill="#FF0000"/>
<path d="M589.87 5.9917V200.34H571.335L544.826 82.313V200.34H527.431V5.9917H543.43L572.474 134.743V5.9917H589.87Z" fill="#FF0000"/>
</svg>
