<svg width="117" height="118" viewBox="0 0 117 118" fill="none" xmlns="http://www.w3.org/2000/svg">
                        <path fill-rule="evenodd" clip-rule="evenodd"
                              d="M38.4702 8.23263C55.224 8.23263 68.7771 21.8701 68.7771 38.6574C68.7771 42.4602 67.9137 45.7809 67.0337 48.1674C66.5963 49.3535 66.163 50.2867 65.8496 50.906C65.6932 51.2149 65.5677 51.4436 65.488 51.5843C65.4482 51.6545 65.4199 51.7027 65.405 51.7276C65.3995 51.7369 65.3959 51.7429 65.3942 51.7458C64.3908 53.3725 64.6328 55.4836 65.9798 56.8365L107.566 98.6067L110.446 95.6901L107.566 98.6067C108.037 99.0795 108.639 100.016 108.797 100.993C108.914 101.712 108.862 102.717 107.566 104.019L107.566 104.019L102.901 108.705C102.398 109.106 101.505 109.596 100.592 109.732C99.8211 109.847 99.0286 109.74 98.1313 108.839L96.9799 107.683C93.9874 104.677 92.7715 103.456 92.5338 103.217C90.9414 101.617 88.3659 101.616 86.7731 103.216C84.9319 105.066 83.299 105.248 82.0237 105.002C80.523 104.712 79.1984 103.742 78.5456 102.889C77.5528 101.467 77.6175 100.144 78.0287 98.9044C78.2469 98.2469 78.5541 97.6723 78.8155 97.2573C78.9428 97.055 79.0504 96.9049 79.1159 96.8175C79.1476 96.7751 79.1687 96.7485 79.1762 96.7392C80.5454 95.1042 80.4443 92.6801 78.9377 91.1669L77.3382 89.5604C75.7456 87.9609 73.1706 87.961 71.5781 89.5605C68.529 92.6231 66.2441 92.7977 64.8424 92.5295C63.1666 92.2089 61.7173 91.0442 60.952 90.038C59.8396 88.449 59.8364 86.9573 60.1338 85.7028C60.2907 85.0408 60.5313 84.4734 60.7339 84.0747C60.833 83.8795 60.9168 83.7369 60.966 83.6571C60.9866 83.6236 61.0007 83.6021 61.0066 83.5931C61.1204 83.4291 61.2223 83.257 61.3114 83.078C61.4631 82.7732 61.6709 82.4969 62.0503 82.0746C62.0756 82.0465 62.1122 82.0072 62.1579 81.9582C62.4786 81.6141 63.2488 80.7877 63.7271 79.923C64.5338 78.4644 64.7587 76.7072 64.0537 74.8806C63.4968 73.438 62.4415 72.188 61.3438 71.0854L56.5451 66.2655C55.0539 64.7677 52.6781 64.659 51.0586 66.0145C49.9277 66.961 47.8047 67.7997 45.1003 68.3643C42.5163 68.9038 39.9568 69.0822 38.4702 69.0822C21.7159 69.0822 8.16281 55.4446 8.16281 38.6574C8.16281 32.8174 9.79781 27.3726 12.6325 22.7451C13.8172 20.8111 13.2231 18.2746 11.3055 17.0797C9.38785 15.8848 6.87286 16.484 5.68812 18.4181C2.08072 24.3069 0 31.2439 0 38.6574C0 60.023 17.2392 77.3148 38.4702 77.3148C40.4491 77.3148 43.5677 77.0915 46.755 76.426C48.7283 76.014 50.9809 75.3829 53.0578 74.3816L55.5836 76.9187C55.6001 76.9353 55.6164 76.9517 55.6324 76.9679C55.1745 77.5072 54.6295 78.2217 54.1466 79.1309C54.1121 79.1847 54.0742 79.2447 54.0334 79.3109C53.8795 79.5605 53.6822 79.9011 53.4689 80.321C53.0467 81.1523 52.5376 82.342 52.1947 83.7886C51.4949 86.7407 51.4891 90.8573 54.3472 94.8762C54.3657 94.9022 54.3845 94.928 54.4035 94.9536C56.0452 97.152 59.1395 99.8179 63.3211 100.618C65.3436 101.005 67.4551 100.925 69.5892 100.292C69.546 102.594 70.1293 105.18 71.9414 107.728C71.9598 107.754 71.9785 107.78 71.9975 107.805C73.7541 110.158 76.8119 112.377 80.4882 113.088C83.3228 113.635 86.3882 113.253 89.2882 111.576C89.959 112.25 90.783 113.077 91.7845 114.083L92.3712 114.672L94.9405 112.071L92.3713 114.672C95.3127 117.627 98.7855 118.323 101.786 117.876C104.584 117.459 106.912 116.08 108.297 114.887C108.377 114.818 108.454 114.747 108.528 114.672L113.326 109.853C116.509 106.656 117.39 102.976 116.853 99.6649C116.358 96.6123 114.722 94.175 113.326 92.7734C113.326 92.7734 113.326 92.7734 113.326 92.7734L73.844 53.1166C74.1136 52.5059 74.3996 51.8098 74.6846 51.0369C75.804 48.0011 76.9399 43.6906 76.9399 38.6574C76.9399 17.2917 59.7007 0 38.4702 0C33.4954 0 28.731 0.950974 24.3555 2.68597C22.2577 3.5178 21.2257 5.90726 22.0505 8.02299C22.8753 10.1387 25.2445 11.1795 27.3423 10.3477C30.7813 8.98406 34.5335 8.23263 38.4702 8.23263ZM79.1534 96.7661C79.1557 96.7635 79.158 96.7608 79.1602 96.7581L79.1597 96.7587L79.1556 96.7635L79.1534 96.7661Z"
                              fill="#00FF00"/>
                        <path fill-rule="evenodd" clip-rule="evenodd"
                              d="M39 31.1484C43.3655 31.1484 46.8765 34.6795 46.8765 39.0001C46.8765 43.3206 43.3656 46.8516 39 46.8516C34.634 46.8516 31.1235 43.3207 31.1235 39.0001C31.1235 34.6793 34.634 31.1484 39 31.1484ZM55 39.0001C55 30.1477 47.8205 23 39 23C30.1788 23 23 30.1478 23 39.0001C23 47.8524 30.1789 55 39 55C47.8204 55 55 47.8525 55 39.0001Z"
                              fill="#00FF00"/>
                    </svg>