<svg xmlns="http://www.w3.org/2000/svg" width="122" height="122" viewBox="0 0 122 122" fill="none">
    <path fill-rule="evenodd" clip-rule="evenodd"
          d="M113.335 2.00002L113.789 2.00005C117.219 2.00005 120 4.78059 120 8.21057L120 8.66527C120.001 17.6394 120.001 26.1961 117.409 34.8372C114.932 43.095 110.24 51.0326 101.888 59.8803L104.199 71.4328C106.643 83.65 102.819 96.28 94.0083 105.09L86.7396 112.359C80.9044 118.194 71.1065 116.822 67.099 109.608L55.9935 89.6185L32.3815 66.0065L12.3923 54.9012C5.17819 50.8937 3.80612 41.0952 9.64105 35.2603L16.9099 27.9914C25.7198 19.1815 38.3497 15.3575 50.5668 17.8009L62.1197 20.1115C70.9674 11.7595 78.905 7.06824 87.1628 4.59091C95.8039 1.99858 104.361 1.99929 113.335 2.00002ZM52.7561 30.9058L48.1308 29.9807C39.9861 28.3518 31.5662 30.9011 25.6929 36.7744L18.4242 44.0431L34.6375 53.0507L52.7561 30.9058ZM44.5237 60.5827L61.5163 77.5753C61.5218 77.5709 61.5274 77.5666 61.533 77.5622C64.1788 75.4963 67.7764 72.6712 71.5883 69.6313C79.3558 63.4368 87.5774 56.6922 90.7664 53.5032C99.5671 44.7025 103.554 37.7952 105.512 31.2681C107.062 26.1015 107.45 20.8836 107.547 14.453C101.116 14.5498 95.8985 14.9381 90.7319 16.4881C84.2584 18.4302 77.4109 22.3676 68.7132 31.0178L44.5237 60.5827ZM69.0144 87.4796L77.9569 103.576L85.2253 96.3074C91.0991 90.4336 93.6483 82.0136 92.0192 73.869L91.1852 69.6987C87.4709 72.8084 83.2304 76.2341 79.3327 79.3424C75.478 82.4165 71.8453 85.269 69.1775 87.3522C69.1227 87.395 69.0683 87.4374 69.0144 87.4796ZM90.2336 31.7694C92.659 34.1948 92.659 38.1271 90.2336 40.5524L84.0231 46.763C81.5977 49.1883 77.6654 49.1883 75.2401 46.763C72.8147 44.3376 72.8147 40.4053 75.2401 37.98L81.4506 31.7694C83.8759 29.3441 87.8082 29.3441 90.2336 31.7694ZM6.33424 91.5041C8.07602 82.7949 15.7227 76.5263 24.604 76.5263H26.8422C37.132 76.5263 45.4737 84.8677 45.4737 95.1578V97.3961C45.4737 106.278 39.2049 113.924 30.4963 115.666L9.42852 119.879C7.39235 120.287 5.28738 119.649 3.81908 118.181C2.35079 116.713 1.71347 114.608 2.12071 112.571L6.33424 91.5041ZM24.604 88.9473C21.6435 88.9473 19.0947 91.0368 18.5141 93.94L16.1275 105.873L28.06 103.486C30.963 102.905 33.0527 100.357 33.0527 97.3961V95.1578C33.0527 91.7277 30.2722 88.9473 26.8422 88.9473H24.604Z"
          fill="#00FF00" stroke="#0C0C0C" stroke-width="4" stroke-linecap="round"
          stroke-linejoin="round"/>
</svg>