<svg xmlns="http://www.w3.org/2000/svg" width="114" height="114" viewBox="0 0 114 114" fill="none">
    <path d="M73.0044 81.0065L93.0175 101.019C95.2404 103.242 98.7881 103.236 101.012 101.012C103.24 98.7835 103.237 95.235 101.02 93.0173L81.0066 73.0043L73.0044 81.0065ZM63.5323 87.5388C58.0281 89.8953 51.9664 91.2 45.6 91.2C20.4158 91.2 0 70.7842 0 45.6C0 20.4158 20.4158 0 45.6 0C70.7842 0 91.2 20.4158 91.2 45.6C91.2 51.9664 89.8953 58.028 87.5388 63.5322L109.022 85.0151C115.656 91.6493 115.665 102.363 109.014 109.014C102.377 115.651 91.6643 115.671 85.0153 109.022L63.5323 87.5388ZM45.6 79.8C64.4881 79.8 79.8 64.4881 79.8 45.6C79.8 26.7119 64.4881 11.4 45.6 11.4C26.7119 11.4 11.4 26.7119 11.4 45.6C11.4 64.4881 26.7119 79.8 45.6 79.8Z"
          fill="#00FF00"/>
</svg>