<svg xmlns="http://www.w3.org/2000/svg" width="130" height="114" viewBox="0 0 130 114" fill="none">
    <path d="M97.1462 83.3239L97.0001 83.4703V83.6771V97.7143C97.0001 106.434 89.9478 113.5 81.2501 113.5H27.0834C12.4028 113.5 0.5 101.572 0.5 86.8571V38C0.5 26.2826 9.97768 16.7857 21.6667 16.7857H62.7565H62.9639L63.1104 16.6389L77.7739 1.94314C79.6938 0.0189553 82.8064 0.0189553 84.7263 1.94313L128.06 45.3717C129.98 47.2966 129.98 50.4178 128.06 52.3425L97.1462 83.3239ZM52.277 27.496L53.1283 26.6429H51.9231H21.6667C15.4064 26.6429 10.3333 31.7287 10.3333 38V86.8571C10.3333 96.1269 17.8316 103.643 27.0834 103.643H81.2501C84.5189 103.643 87.1668 100.988 87.1668 97.7143V81.4324V81.4248V54.2857C87.1668 51.0124 84.5189 48.3571 81.2501 48.3571H43.3371H43.3296H27.0834C21.3774 48.3571 16.75 43.7211 16.75 38V35.2857C16.75 32.5627 18.9523 30.3571 21.6667 30.3571C24.381 30.3571 26.5834 32.5627 26.5834 35.2857V38V38.5H27.0834H41.0897H41.2972L41.4437 38.3532L52.277 27.496ZM56.0564 37.6468L55.2051 38.5H56.4103H81.2501C89.9478 38.5 97.0001 45.5665 97.0001 54.2857V68.3229V69.5319L97.854 68.6761L117.277 49.2103L117.63 48.8571L117.277 48.504L81.604 12.7526L81.2501 12.3978L80.8961 12.7526L68.4762 25.1997L56.0564 37.6468Z"
          fill="#00FF00" stroke="black"/>
</svg>